<?xml version="1.0" encoding="UTF-8" standalone="no"?>
<!-- Created with Inkscape (http://www.inkscape.org/) -->

<svg
   version="1.1"
   id="svg2"
   width="557.9325"
   height="412.98251"
   viewBox="0 0 557.9325 412.98251"
   xmlns="http://www.w3.org/2000/svg"
   xmlns:svg="http://www.w3.org/2000/svg">
  <defs
     id="defs6">
    <clipPath
       clipPathUnits="userSpaceOnUse"
       id="clipPath20">
      <path
         d="M 51.809375,44.340625 H 411.24937 V 284.38062 H 51.809375 Z"
         id="path18" />
    </clipPath>
    <clipPath
       clipPathUnits="userSpaceOnUse"
       id="clipPath40">
      <path
         d="M 51.809375,44.340625 H 411.24937 V 284.38062 H 51.809375 Z"
         id="path38" />
    </clipPath>
    <clipPath
       clipPathUnits="userSpaceOnUse"
       id="clipPath60">
      <path
         d="M 51.809375,44.340625 H 411.24937 V 284.38062 H 51.809375 Z"
         id="path58" />
    </clipPath>
    <clipPath
       clipPathUnits="userSpaceOnUse"
       id="clipPath80">
      <path
         d="M 51.809375,44.340625 H 411.24937 V 284.38062 H 51.809375 Z"
         id="path78" />
    </clipPath>
    <clipPath
       clipPathUnits="userSpaceOnUse"
       id="clipPath100">
      <path
         d="M 51.809375,44.340625 H 411.24937 V 284.38062 H 51.809375 Z"
         id="path98" />
    </clipPath>
    <clipPath
       clipPathUnits="userSpaceOnUse"
       id="clipPath120">
      <path
         d="M 51.809375,44.340625 H 411.24937 V 284.38062 H 51.809375 Z"
         id="path118" />
    </clipPath>
    <clipPath
       clipPathUnits="userSpaceOnUse"
       id="clipPath146">
      <path
         d="M 51.809375,44.340625 H 411.24937 V 284.38062 H 51.809375 Z"
         id="path144" />
    </clipPath>
    <clipPath
       clipPathUnits="userSpaceOnUse"
       id="clipPath166">
      <path
         d="M 51.809375,44.340625 H 411.24937 V 284.38062 H 51.809375 Z"
         id="path164" />
    </clipPath>
    <clipPath
       clipPathUnits="userSpaceOnUse"
       id="clipPath186">
      <path
         d="M 51.809375,44.340625 H 411.24937 V 284.38062 H 51.809375 Z"
         id="path184" />
    </clipPath>
    <clipPath
       clipPathUnits="userSpaceOnUse"
       id="clipPath206">
      <path
         d="M 51.809375,44.340625 H 411.24937 V 284.38062 H 51.809375 Z"
         id="path204" />
    </clipPath>
    <clipPath
       clipPathUnits="userSpaceOnUse"
       id="clipPath226">
      <path
         d="M 51.809375,44.340625 H 411.24937 V 284.38062 H 51.809375 Z"
         id="path224" />
    </clipPath>
    <clipPath
       clipPathUnits="userSpaceOnUse"
       id="clipPath246">
      <path
         d="M 51.809375,44.340625 H 411.24937 V 284.38062 H 51.809375 Z"
         id="path244" />
    </clipPath>
    <clipPath
       clipPathUnits="userSpaceOnUse"
       id="clipPath272">
      <path
         d="M 51.809375,44.340625 H 411.24937 V 284.38062 H 51.809375 Z"
         id="path270" />
    </clipPath>
    <clipPath
       clipPathUnits="userSpaceOnUse"
       id="clipPath282">
      <path
         d="M 51.809375,44.340625 H 411.24937 V 284.38062 H 51.809375 Z"
         id="path280" />
    </clipPath>
  </defs>
  <g
     id="g8"
     transform="matrix(1.3333333,0,0,-1.3333333,0,412.9825)">
    <path
       d="M 0,0 H 418.44937 V 309.73687 H 0 Z"
       style="fill:#ffffff;fill-opacity:1;fill-rule:nonzero;stroke:none"
       id="path10" />
    <path
       d="M 51.809375,44.340625 H 411.24937 V 284.38062 H 51.809375 Z"
       style="fill:#ffffff;fill-opacity:1;fill-rule:nonzero;stroke:none"
       id="path12" />
    <g
       id="g14">
      <g
         id="g16"
         clip-path="url(#clipPath20)">
        <path
           d="M 64.846914,44.340625 V 284.38062"
           style="fill:none;stroke:#b0b0b0;stroke-width:0.5;stroke-linecap:butt;stroke-linejoin:round;stroke-miterlimit:10;stroke-dasharray:1.85, 0.8;stroke-dashoffset:0;stroke-opacity:0.6"
           id="path22" />
      </g>
    </g>
    <g
       id="g24">
      <path
         d="m 64.846914,44.340625 v -3.5"
         style="fill:#000000;fill-opacity:1;fill-rule:nonzero;stroke:#000000;stroke-width:0.8;stroke-linecap:butt;stroke-linejoin:round;stroke-miterlimit:10;stroke-dasharray:none;stroke-opacity:1"
         id="path26" />
      <g
         id="g28"
         transform="translate(61.026602,28.215625)">
        <text
           xml:space="preserve"
           transform="scale(1,-1)"
           style="font-variant:normal;font-weight:normal;font-size:12px;font-family:'DejaVu Serif';-inkscape-font-specification:DejaVuSerif;writing-mode:lr-tb;fill:#000000;fill-opacity:1;fill-rule:nonzero;stroke:none"
           id="text32"><tspan
             x="0"
             y="0"
             id="tspan30">0</tspan></text>
      </g>
    </g>
    <g
       id="g34">
      <g
         id="g36"
         clip-path="url(#clipPath40)">
        <path
           d="M 130.85977,44.340625 V 284.38062"
           style="fill:none;stroke:#b0b0b0;stroke-width:0.5;stroke-linecap:butt;stroke-linejoin:round;stroke-miterlimit:10;stroke-dasharray:1.85, 0.8;stroke-dashoffset:0;stroke-opacity:0.6"
           id="path42" />
      </g>
    </g>
    <g
       id="g44">
      <path
         d="m 130.85977,44.340625 v -3.5"
         style="fill:#000000;fill-opacity:1;fill-rule:nonzero;stroke:#000000;stroke-width:0.8;stroke-linecap:butt;stroke-linejoin:round;stroke-miterlimit:10;stroke-dasharray:none;stroke-opacity:1"
         id="path46" />
      <g
         id="g48"
         transform="translate(123.21914,28.215625)">
        <text
           xml:space="preserve"
           transform="scale(1,-1)"
           style="font-variant:normal;font-weight:normal;font-size:12px;font-family:'DejaVu Serif';-inkscape-font-specification:DejaVuSerif;writing-mode:lr-tb;fill:#000000;fill-opacity:1;fill-rule:nonzero;stroke:none"
           id="text52"><tspan
             x="0 7.632"
             y="0"
             id="tspan50">20</tspan></text>
      </g>
    </g>
    <g
       id="g54">
      <g
         id="g56"
         clip-path="url(#clipPath60)">
        <path
           d="M 196.87263,44.340625 V 284.38062"
           style="fill:none;stroke:#b0b0b0;stroke-width:0.5;stroke-linecap:butt;stroke-linejoin:round;stroke-miterlimit:10;stroke-dasharray:1.85, 0.8;stroke-dashoffset:0;stroke-opacity:0.6"
           id="path62" />
      </g>
    </g>
    <g
       id="g64">
      <path
         d="m 196.87263,44.340625 v -3.5"
         style="fill:#000000;fill-opacity:1;fill-rule:nonzero;stroke:#000000;stroke-width:0.8;stroke-linecap:butt;stroke-linejoin:round;stroke-miterlimit:10;stroke-dasharray:none;stroke-opacity:1"
         id="path66" />
      <g
         id="g68"
         transform="translate(189.232,28.215625)">
        <text
           xml:space="preserve"
           transform="scale(1,-1)"
           style="font-variant:normal;font-weight:normal;font-size:12px;font-family:'DejaVu Serif';-inkscape-font-specification:DejaVuSerif;writing-mode:lr-tb;fill:#000000;fill-opacity:1;fill-rule:nonzero;stroke:none"
           id="text72"><tspan
             x="0 7.632"
             y="0"
             id="tspan70">40</tspan></text>
      </g>
    </g>
    <g
       id="g74">
      <g
         id="g76"
         clip-path="url(#clipPath80)">
        <path
           d="M 262.88548,44.340625 V 284.38062"
           style="fill:none;stroke:#b0b0b0;stroke-width:0.5;stroke-linecap:butt;stroke-linejoin:round;stroke-miterlimit:10;stroke-dasharray:1.85, 0.8;stroke-dashoffset:0;stroke-opacity:0.6"
           id="path82" />
      </g>
    </g>
    <g
       id="g84">
      <path
         d="m 262.88548,44.340625 v -3.5"
         style="fill:#000000;fill-opacity:1;fill-rule:nonzero;stroke:#000000;stroke-width:0.8;stroke-linecap:butt;stroke-linejoin:round;stroke-miterlimit:10;stroke-dasharray:none;stroke-opacity:1"
         id="path86" />
      <g
         id="g88"
         transform="translate(255.24486,28.215625)">
        <text
           xml:space="preserve"
           transform="scale(1,-1)"
           style="font-variant:normal;font-weight:normal;font-size:12px;font-family:'DejaVu Serif';-inkscape-font-specification:DejaVuSerif;writing-mode:lr-tb;fill:#000000;fill-opacity:1;fill-rule:nonzero;stroke:none"
           id="text92"><tspan
             x="0 7.632"
             y="0"
             id="tspan90">60</tspan></text>
      </g>
    </g>
    <g
       id="g94">
      <g
         id="g96"
         clip-path="url(#clipPath100)">
        <path
           d="M 328.89834,44.340625 V 284.38062"
           style="fill:none;stroke:#b0b0b0;stroke-width:0.5;stroke-linecap:butt;stroke-linejoin:round;stroke-miterlimit:10;stroke-dasharray:1.85, 0.8;stroke-dashoffset:0;stroke-opacity:0.6"
           id="path102" />
      </g>
    </g>
    <g
       id="g104">
      <path
         d="m 328.89834,44.340625 v -3.5"
         style="fill:#000000;fill-opacity:1;fill-rule:nonzero;stroke:#000000;stroke-width:0.8;stroke-linecap:butt;stroke-linejoin:round;stroke-miterlimit:10;stroke-dasharray:none;stroke-opacity:1"
         id="path106" />
      <g
         id="g108"
         transform="translate(321.25771,28.215625)">
        <text
           xml:space="preserve"
           transform="scale(1,-1)"
           style="font-variant:normal;font-weight:normal;font-size:12px;font-family:'DejaVu Serif';-inkscape-font-specification:DejaVuSerif;writing-mode:lr-tb;fill:#000000;fill-opacity:1;fill-rule:nonzero;stroke:none"
           id="text112"><tspan
             x="0 7.632"
             y="0"
             id="tspan110">80</tspan></text>
      </g>
    </g>
    <g
       id="g114">
      <g
         id="g116"
         clip-path="url(#clipPath120)">
        <path
           d="M 394.91119,44.340625 V 284.38062"
           style="fill:none;stroke:#b0b0b0;stroke-width:0.5;stroke-linecap:butt;stroke-linejoin:round;stroke-miterlimit:10;stroke-dasharray:1.85, 0.8;stroke-dashoffset:0;stroke-opacity:0.6"
           id="path122" />
      </g>
    </g>
    <g
       id="g124">
      <path
         d="m 394.91119,44.340625 v -3.5"
         style="fill:#000000;fill-opacity:1;fill-rule:nonzero;stroke:#000000;stroke-width:0.8;stroke-linecap:butt;stroke-linejoin:round;stroke-miterlimit:10;stroke-dasharray:none;stroke-opacity:1"
         id="path126" />
      <g
         id="g128"
         transform="translate(383.45026,28.215625)">
        <text
           xml:space="preserve"
           transform="scale(1,-1)"
           style="font-variant:normal;font-weight:normal;font-size:12px;font-family:'DejaVu Serif';-inkscape-font-specification:DejaVuSerif;writing-mode:lr-tb;fill:#000000;fill-opacity:1;fill-rule:nonzero;stroke:none"
           id="text132"><tspan
             x="0 7.632 15.264"
             y="0"
             id="tspan130">100</tspan></text>
      </g>
      <g
         id="g134"
         transform="translate(205.545,10.325)">
        <text
           xml:space="preserve"
           transform="scale(1,-1)"
           style="font-variant:normal;font-weight:bold;font-size:15px;font-family:'DejaVu Serif';-inkscape-font-specification:DejaVuSerif-Bold;writing-mode:lr-tb;fill:#000000;fill-opacity:1;fill-rule:nonzero;stroke:none"
           id="text138"><tspan
             x="0 11.43 21.915001 31.92 41.055"
             y="0"
             id="tspan136">Epoch</tspan></text>
      </g>
    </g>
    <g
       id="g140">
      <g
         id="g142"
         clip-path="url(#clipPath146)">
        <path
           d="M 51.809375,44.340625 H 411.24937"
           style="fill:none;stroke:#b0b0b0;stroke-width:0.5;stroke-linecap:butt;stroke-linejoin:round;stroke-miterlimit:10;stroke-dasharray:1.85, 0.8;stroke-dashoffset:0;stroke-opacity:0.6"
           id="path148" />
      </g>
    </g>
    <g
       id="g150">
      <path
         d="m 51.809375,44.340625 h -3.5"
         style="fill:#000000;fill-opacity:1;fill-rule:nonzero;stroke:#000000;stroke-width:0.8;stroke-linecap:butt;stroke-linejoin:round;stroke-miterlimit:10;stroke-dasharray:none;stroke-opacity:1"
         id="path152" />
      <g
         id="g154"
         transform="translate(25.715625,39.778125)">
        <text
           xml:space="preserve"
           transform="scale(1,-1)"
           style="font-variant:normal;font-weight:normal;font-size:12px;font-family:'DejaVu Serif';-inkscape-font-specification:DejaVuSerif;writing-mode:lr-tb;fill:#000000;fill-opacity:1;fill-rule:nonzero;stroke:none"
           id="text158"><tspan
             x="0 7.632 11.448"
             y="0"
             id="tspan156">0.5</tspan></text>
      </g>
    </g>
    <g
       id="g160">
      <g
         id="g162"
         clip-path="url(#clipPath166)">
        <path
           d="M 51.809375,92.348625 H 411.24937"
           style="fill:none;stroke:#b0b0b0;stroke-width:0.5;stroke-linecap:butt;stroke-linejoin:round;stroke-miterlimit:10;stroke-dasharray:1.85, 0.8;stroke-dashoffset:0;stroke-opacity:0.6"
           id="path168" />
      </g>
    </g>
    <g
       id="g170">
      <path
         d="m 51.809375,92.348625 h -3.5"
         style="fill:#000000;fill-opacity:1;fill-rule:nonzero;stroke:#000000;stroke-width:0.8;stroke-linecap:butt;stroke-linejoin:round;stroke-miterlimit:10;stroke-dasharray:none;stroke-opacity:1"
         id="path172" />
      <g
         id="g174"
         transform="translate(25.715625,87.786125)">
        <text
           xml:space="preserve"
           transform="scale(1,-1)"
           style="font-variant:normal;font-weight:normal;font-size:12px;font-family:'DejaVu Serif';-inkscape-font-specification:DejaVuSerif;writing-mode:lr-tb;fill:#000000;fill-opacity:1;fill-rule:nonzero;stroke:none"
           id="text178"><tspan
             x="0 7.632 11.448"
             y="0"
             id="tspan176">0.6</tspan></text>
      </g>
    </g>
    <g
       id="g180">
      <g
         id="g182"
         clip-path="url(#clipPath186)">
        <path
           d="M 51.809375,140.35662 H 411.24937"
           style="fill:none;stroke:#b0b0b0;stroke-width:0.5;stroke-linecap:butt;stroke-linejoin:round;stroke-miterlimit:10;stroke-dasharray:1.85, 0.8;stroke-dashoffset:0;stroke-opacity:0.6"
           id="path188" />
      </g>
    </g>
    <g
       id="g190">
      <path
         d="m 51.809375,140.35662 h -3.5"
         style="fill:#000000;fill-opacity:1;fill-rule:nonzero;stroke:#000000;stroke-width:0.8;stroke-linecap:butt;stroke-linejoin:round;stroke-miterlimit:10;stroke-dasharray:none;stroke-opacity:1"
         id="path192" />
      <g
         id="g194"
         transform="translate(25.715625,135.79412)">
        <text
           xml:space="preserve"
           transform="scale(1,-1)"
           style="font-variant:normal;font-weight:normal;font-size:12px;font-family:'DejaVu Serif';-inkscape-font-specification:DejaVuSerif;writing-mode:lr-tb;fill:#000000;fill-opacity:1;fill-rule:nonzero;stroke:none"
           id="text198"><tspan
             x="0 7.632 11.448"
             y="0"
             id="tspan196">0.7</tspan></text>
      </g>
    </g>
    <g
       id="g200">
      <g
         id="g202"
         clip-path="url(#clipPath206)">
        <path
           d="M 51.809375,188.36462 H 411.24937"
           style="fill:none;stroke:#b0b0b0;stroke-width:0.5;stroke-linecap:butt;stroke-linejoin:round;stroke-miterlimit:10;stroke-dasharray:1.85, 0.8;stroke-dashoffset:0;stroke-opacity:0.6"
           id="path208" />
      </g>
    </g>
    <g
       id="g210">
      <path
         d="m 51.809375,188.36462 h -3.5"
         style="fill:#000000;fill-opacity:1;fill-rule:nonzero;stroke:#000000;stroke-width:0.8;stroke-linecap:butt;stroke-linejoin:round;stroke-miterlimit:10;stroke-dasharray:none;stroke-opacity:1"
         id="path212" />
      <g
         id="g214"
         transform="translate(25.715625,183.80213)">
        <text
           xml:space="preserve"
           transform="scale(1,-1)"
           style="font-variant:normal;font-weight:normal;font-size:12px;font-family:'DejaVu Serif';-inkscape-font-specification:DejaVuSerif;writing-mode:lr-tb;fill:#000000;fill-opacity:1;fill-rule:nonzero;stroke:none"
           id="text218"><tspan
             x="0 7.632 11.448"
             y="0"
             id="tspan216">0.8</tspan></text>
      </g>
    </g>
    <g
       id="g220">
      <g
         id="g222"
         clip-path="url(#clipPath226)">
        <path
           d="M 51.809375,236.37262 H 411.24937"
           style="fill:none;stroke:#b0b0b0;stroke-width:0.5;stroke-linecap:butt;stroke-linejoin:round;stroke-miterlimit:10;stroke-dasharray:1.85, 0.8;stroke-dashoffset:0;stroke-opacity:0.6"
           id="path228" />
      </g>
    </g>
    <g
       id="g230">
      <path
         d="m 51.809375,236.37262 h -3.5"
         style="fill:#000000;fill-opacity:1;fill-rule:nonzero;stroke:#000000;stroke-width:0.8;stroke-linecap:butt;stroke-linejoin:round;stroke-miterlimit:10;stroke-dasharray:none;stroke-opacity:1"
         id="path232" />
      <g
         id="g234"
         transform="translate(25.715625,231.81012)">
        <text
           xml:space="preserve"
           transform="scale(1,-1)"
           style="font-variant:normal;font-weight:normal;font-size:12px;font-family:'DejaVu Serif';-inkscape-font-specification:DejaVuSerif;writing-mode:lr-tb;fill:#000000;fill-opacity:1;fill-rule:nonzero;stroke:none"
           id="text238"><tspan
             x="0 7.632 11.448"
             y="0"
             id="tspan236">0.9</tspan></text>
      </g>
    </g>
    <g
       id="g240">
      <g
         id="g242"
         clip-path="url(#clipPath246)">
        <path
           d="M 51.809375,284.38062 H 411.24937"
           style="fill:none;stroke:#b0b0b0;stroke-width:0.5;stroke-linecap:butt;stroke-linejoin:round;stroke-miterlimit:10;stroke-dasharray:1.85, 0.8;stroke-dashoffset:0;stroke-opacity:0.6"
           id="path248" />
      </g>
    </g>
    <g
       id="g250">
      <path
         d="m 51.809375,284.38062 h -3.5"
         style="fill:#000000;fill-opacity:1;fill-rule:nonzero;stroke:#000000;stroke-width:0.8;stroke-linecap:butt;stroke-linejoin:round;stroke-miterlimit:10;stroke-dasharray:none;stroke-opacity:1"
         id="path252" />
      <g
         id="g254"
         transform="translate(25.715625,279.81812)">
        <text
           xml:space="preserve"
           transform="scale(1,-1)"
           style="font-variant:normal;font-weight:normal;font-size:12px;font-family:'DejaVu Serif';-inkscape-font-specification:DejaVuSerif;writing-mode:lr-tb;fill:#000000;fill-opacity:1;fill-rule:nonzero;stroke:none"
           id="text258"><tspan
             x="0 7.632 11.448"
             y="0"
             id="tspan256">1.0</tspan></text>
      </g>
      <g
         id="g260"
         transform="rotate(90,-53.908437,72.295938)">
        <text
           xml:space="preserve"
           transform="scale(1,-1)"
           style="font-variant:normal;font-weight:bold;font-size:15px;font-family:'DejaVu Serif';-inkscape-font-specification:DejaVuSerif-Bold;writing-mode:lr-tb;fill:#000000;fill-opacity:1;fill-rule:nonzero;stroke:none"
           id="text264"><tspan
             x="0 11.64 20.775 29.91 40.814999 48.720001 58.439999 67.574997"
             y="0"
             id="tspan262">Accuracy</tspan></text>
      </g>
    </g>
    <g
       id="g266">
      <g
         id="g268"
         clip-path="url(#clipPath272)">
        <path
           d="m 68.147557,115.02732 3.300643,16.47041 3.300642,13.78476 3.300643,16.47812 3.300643,12.50816 3.300643,10.99313 3.300643,9.49081 3.300642,10.27342 3.300643,4.66552 3.300643,10.53787 3.300638,7.52478 3.30065,2.96148 3.30064,3.97199 3.30064,4.8433 3.30065,4.63367 3.30064,2.37727 3.30064,5.88951 3.30064,3.33257 3.30065,-0.50927 3.30064,2.82531 3.30064,1.71194 3.30064,1.39059 3.30065,2.58127 3.30064,1.33508 3.30064,2.24752 3.30065,-0.68509 3.30064,-0.0897 3.30064,3.10377 3.30064,-2.20647 3.30065,3.7542 3.30064,-1.54803 3.30064,0.80411 3.30065,2.63835 3.30064,-0.71644 3.30064,0.20796 3.30064,-0.294 3.30065,-0.21009 3.30064,1.70564 3.30064,-0.23294 3.30065,0.203 3.30064,-0.75392 3.30064,2.58344 3.30064,-0.99472 3.30065,0.13352 3.30064,-0.96185 3.30064,-1.5728 3.30064,2.05055 3.30065,-1.00267 3.30064,0.48949 3.30064,-0.93028 3.30065,2.93726 3.30064,-1.37742 3.30064,0.38477 3.30064,-0.0578 3.30065,-0.41557 3.30064,-0.90655 3.30064,1.62386 3.30065,0.17727 3.30064,-0.46303 3.30064,0.70836 3.30064,-1.21856 3.30065,0.72531 3.30064,-0.0307 3.30064,-0.66411 3.30064,-0.5439 3.30065,2.5847 3.30064,-0.81935 3.30064,-0.77458 3.30065,0.47618 3.30064,-2.96197 3.30064,3.79479 3.30064,-0.10294 3.30065,-3.1876 3.30064,0.99647 3.30064,2.20152 3.30065,-0.67441 3.30064,1.32115 3.30064,-2.6063 3.30064,0.59687 3.30065,0.97553 3.30064,-0.58944 3.30064,-1.00888 3.30065,2.46039 3.30064,-2.66456 3.30064,1.49637 3.30064,0.59195 3.30065,0.43765 3.30064,-0.88261 3.30064,-0.12218 3.30064,-1.44098 3.30065,1.33 3.30064,-0.75275 3.30064,0.2657 3.30065,-0.003 3.30064,1.08389 3.30064,-1.50505 3.30065,0.55704 3.30064,-0.69702 3.30064,1.72243 3.30064,-1.10089"
           style="fill:none;stroke:#0072b2;stroke-width:2.5;stroke-linecap:square;stroke-linejoin:round;stroke-miterlimit:10;stroke-dasharray:none;stroke-opacity:1"
           id="path274" />
      </g>
    </g>
    <g
       id="g276">
      <g
         id="g278"
         clip-path="url(#clipPath282)">
        <path
           d="m 68.147557,108.80585 3.300643,10.4476 3.300642,7.20847 3.300643,6.24292 3.300643,17.62778 3.300643,-1.70263 3.300643,10.99272 3.300642,8.80393 3.300643,-0.33743 3.300643,9.10615 3.300638,-2.77027 3.30065,6.258 3.30064,7.82253 3.30064,-0.61974 3.30065,17.03936 3.30064,-3.56842 3.30064,4.67436 3.30064,-0.96601 3.30065,4.51083 3.30064,-0.85687 3.30064,3.30805 3.30064,0.77036 3.30065,0.53748 3.30064,2.22139 3.30064,-4.19248 3.30065,6.71356 3.30064,1.55793 3.30064,5.37696 3.30064,-4.64768 3.30065,0.70604 3.30064,-1.61186 3.30064,4.23002 3.30065,-2.61484 3.30064,7.11996 3.30064,-9.24827 3.30064,-0.39338 3.30065,-1.50211 3.30064,5.08994 3.30064,3.10521 3.30065,-5.68479 3.30064,8.18454 3.30064,-7.99596 3.30064,7.00232 3.30065,-2.11929 3.30064,2.01434 3.30064,-0.0567 3.30064,-0.82804 3.30065,3.8132 3.30064,-5.71514 3.30064,-0.4045 3.30065,-0.8322 3.30064,2.39122 3.30064,1.55095 3.30064,-0.25486 3.30065,-0.16693 3.30064,-2.31142 3.30064,3.81461 3.30065,1.3089 3.30064,-1.14265 3.30064,1.58115 3.30064,-1.81462 3.30065,4.66304 3.30064,-12.03272 3.30064,2.21588 3.30064,0.98354 3.30065,3.20487 3.30064,-1.34967 3.30064,4.66928 3.30065,0.64966 3.30064,-3.12412 3.30064,-3.69819 3.30064,-3.12094 3.30065,8.06475 3.30064,-2.45125 3.30064,0.32294 3.30065,-1.62555 3.30064,4.66719 3.30064,-3.76961 3.30064,-0.68448 3.30065,2.86903 3.30064,-1.35961 3.30064,4.60779 3.30065,-0.40308 3.30064,-11.15349 3.30064,8.62238 3.30064,-5.68346 3.30065,9.22539 3.30064,-0.55019 3.30064,-5.16086 3.30064,0.56974 3.30065,-0.94469 3.30064,4.41631 3.30064,-5.68141 3.30065,5.36483 3.30064,0.694 3.30064,-7.65485 3.30065,12.28414 3.30064,-11.99994 3.30064,2.45408 3.30064,-8.80498"
           style="fill:none;stroke:#d55e00;stroke-width:2.5;stroke-linecap:square;stroke-linejoin:round;stroke-miterlimit:10;stroke-dasharray:none;stroke-opacity:1"
           id="path284" />
      </g>
    </g>
    <g
       id="g286">
      <path
         d="M 51.809375,44.340625 V 284.38062"
         style="fill:none;stroke:#000000;stroke-width:0.8;stroke-linecap:square;stroke-linejoin:miter;stroke-miterlimit:10;stroke-dasharray:none;stroke-opacity:1"
         id="path288" />
      <path
         d="M 411.24937,44.340625 V 284.38062"
         style="fill:none;stroke:#000000;stroke-width:0.8;stroke-linecap:square;stroke-linejoin:miter;stroke-miterlimit:10;stroke-dasharray:none;stroke-opacity:1"
         id="path290" />
      <path
         d="M 51.809375,44.340625 H 411.24937"
         style="fill:none;stroke:#000000;stroke-width:0.8;stroke-linecap:square;stroke-linejoin:miter;stroke-miterlimit:10;stroke-dasharray:none;stroke-opacity:1"
         id="path292" />
      <path
         d="M 51.809375,284.38062 H 411.24937"
         style="fill:none;stroke:#000000;stroke-width:0.8;stroke-linecap:square;stroke-linejoin:miter;stroke-miterlimit:10;stroke-dasharray:none;stroke-opacity:1"
         id="path294" />
      <g
         id="g296"
         transform="translate(176.88875,290.38062)">
        <text
           xml:space="preserve"
           transform="scale(1,-1)"
           style="font-variant:normal;font-weight:bold;font-size:16px;font-family:'DejaVu Serif';-inkscape-font-specification:DejaVuSerif-Bold;writing-mode:lr-tb;fill:#000000;fill-opacity:1;fill-rule:nonzero;stroke:none"
           id="text300"><tspan
             x="0 10.94725 21.123249 30.13125 39.139252 49.31525 55.395248 60.963249 78.675247 89.043251 100.22725"
             y="0"
             id="tspan298">Vessel Maps</tspan></text>
      </g>
      <path
         d="m 229.6275,50.840625 h 172.52188 c 1.73333,0 2.59999,0.866667 2.59999,2.6 v 37.23125 c 0,1.733333 -0.86666,2.6 -2.59999,2.6 H 229.6275 c -1.73333,0 -2.6,-0.866667 -2.6,-2.6 v -37.23125 c 0,-1.733333 0.86667,-2.6 2.6,-2.6 z"
         style="fill:#ffffff;fill-opacity:0.9;fill-rule:nonzero;stroke:#808080;stroke-width:1;stroke-linecap:butt;stroke-linejoin:miter;stroke-miterlimit:10;stroke-dasharray:none;stroke-opacity:0.9"
         id="path302" />
      <path
         d="m 232.2275,82.746875 h 13 13"
         style="fill:none;stroke:#0072b2;stroke-width:2.5;stroke-linecap:square;stroke-linejoin:round;stroke-miterlimit:10;stroke-dasharray:none;stroke-opacity:1"
         id="path304" />
      <g
         id="g306"
         transform="translate(268.6275,78.196875)">
        <text
           xml:space="preserve"
           transform="scale(1,-1)"
           style="font-variant:normal;font-weight:normal;font-size:13px;font-family:'DejaVu Serif';-inkscape-font-specification:DejaVuSerif;writing-mode:lr-tb;fill:#000000;fill-opacity:1;fill-rule:nonzero;stroke:none"
           id="text310"><tspan
             x="0 8.6709995 14.885 22.632999 26.792999 35.165001 39.299 48.685001 55.965 63.244999 71.616997 77.831001 85.579002 92.859001"
             y="0"
             id="tspan308">Train Accuracy</tspan></text>
      </g>
      <path
         d="m 232.2275,63.48125 h 13 13"
         style="fill:none;stroke:#d55e00;stroke-width:2.5;stroke-linecap:square;stroke-linejoin:round;stroke-miterlimit:10;stroke-dasharray:none;stroke-opacity:1"
         id="path312" />
      <g
         id="g314"
         transform="translate(268.6275,58.93125)">
        <text
           xml:space="preserve"
           transform="scale(1,-1)"
           style="font-variant:normal;font-weight:normal;font-size:13px;font-family:'DejaVu Serif';-inkscape-font-specification:DejaVuSerif;writing-mode:lr-tb;fill:#000000;fill-opacity:1;fill-rule:nonzero;stroke:none"
           id="text318"><tspan
             x="0 8.1984997 15.9465 20.106501 24.2665 32.586498 40.334499 45.560501 49.720501 57.546501 65.918503 70.052498 79.438499 86.718498 93.998497 102.3705 108.5845 116.3325 123.6125"
             y="0"
             id="tspan316">Validation Accuracy</tspan></text>
      </g>
    </g>
  </g>
</svg>
