<?xml version="1.0" encoding="UTF-8" standalone="no"?>
<!-- Created with Inkscape (http://www.inkscape.org/) -->

<svg
   version="1.1"
   id="svg2"
   width="557.9325"
   height="412.98251"
   viewBox="0 0 557.9325 412.98251"
   xmlns="http://www.w3.org/2000/svg"
   xmlns:svg="http://www.w3.org/2000/svg">
  <defs
     id="defs6">
    <clipPath
       clipPathUnits="userSpaceOnUse"
       id="clipPath20">
      <path
         d="M 51.809375,44.340625 H 411.24937 V 284.38062 H 51.809375 Z"
         id="path18" />
    </clipPath>
    <clipPath
       clipPathUnits="userSpaceOnUse"
       id="clipPath40">
      <path
         d="M 51.809375,44.340625 H 411.24937 V 284.38062 H 51.809375 Z"
         id="path38" />
    </clipPath>
    <clipPath
       clipPathUnits="userSpaceOnUse"
       id="clipPath60">
      <path
         d="M 51.809375,44.340625 H 411.24937 V 284.38062 H 51.809375 Z"
         id="path58" />
    </clipPath>
    <clipPath
       clipPathUnits="userSpaceOnUse"
       id="clipPath80">
      <path
         d="M 51.809375,44.340625 H 411.24937 V 284.38062 H 51.809375 Z"
         id="path78" />
    </clipPath>
    <clipPath
       clipPathUnits="userSpaceOnUse"
       id="clipPath100">
      <path
         d="M 51.809375,44.340625 H 411.24937 V 284.38062 H 51.809375 Z"
         id="path98" />
    </clipPath>
    <clipPath
       clipPathUnits="userSpaceOnUse"
       id="clipPath120">
      <path
         d="M 51.809375,44.340625 H 411.24937 V 284.38062 H 51.809375 Z"
         id="path118" />
    </clipPath>
    <clipPath
       clipPathUnits="userSpaceOnUse"
       id="clipPath146">
      <path
         d="M 51.809375,44.340625 H 411.24937 V 284.38062 H 51.809375 Z"
         id="path144" />
    </clipPath>
    <clipPath
       clipPathUnits="userSpaceOnUse"
       id="clipPath166">
      <path
         d="M 51.809375,44.340625 H 411.24937 V 284.38062 H 51.809375 Z"
         id="path164" />
    </clipPath>
    <clipPath
       clipPathUnits="userSpaceOnUse"
       id="clipPath186">
      <path
         d="M 51.809375,44.340625 H 411.24937 V 284.38062 H 51.809375 Z"
         id="path184" />
    </clipPath>
    <clipPath
       clipPathUnits="userSpaceOnUse"
       id="clipPath206">
      <path
         d="M 51.809375,44.340625 H 411.24937 V 284.38062 H 51.809375 Z"
         id="path204" />
    </clipPath>
    <clipPath
       clipPathUnits="userSpaceOnUse"
       id="clipPath226">
      <path
         d="M 51.809375,44.340625 H 411.24937 V 284.38062 H 51.809375 Z"
         id="path224" />
    </clipPath>
    <clipPath
       clipPathUnits="userSpaceOnUse"
       id="clipPath246">
      <path
         d="M 51.809375,44.340625 H 411.24937 V 284.38062 H 51.809375 Z"
         id="path244" />
    </clipPath>
    <clipPath
       clipPathUnits="userSpaceOnUse"
       id="clipPath272">
      <path
         d="M 51.809375,44.340625 H 411.24937 V 284.38062 H 51.809375 Z"
         id="path270" />
    </clipPath>
    <clipPath
       clipPathUnits="userSpaceOnUse"
       id="clipPath282">
      <path
         d="M 51.809375,44.340625 H 411.24937 V 284.38062 H 51.809375 Z"
         id="path280" />
    </clipPath>
  </defs>
  <g
     id="g8"
     transform="matrix(1.3333333,0,0,-1.3333333,0,412.9825)">
    <path
       d="M 0,0 H 418.44937 V 309.73687 H 0 Z"
       style="fill:#ffffff;fill-opacity:1;fill-rule:nonzero;stroke:none"
       id="path10" />
    <path
       d="M 51.809375,44.340625 H 411.24937 V 284.38062 H 51.809375 Z"
       style="fill:#ffffff;fill-opacity:1;fill-rule:nonzero;stroke:none"
       id="path12" />
    <g
       id="g14">
      <g
         id="g16"
         clip-path="url(#clipPath20)">
        <path
           d="M 64.846914,44.340625 V 284.38062"
           style="fill:none;stroke:#b0b0b0;stroke-width:0.5;stroke-linecap:butt;stroke-linejoin:round;stroke-miterlimit:10;stroke-dasharray:1.85, 0.8;stroke-dashoffset:0;stroke-opacity:0.6"
           id="path22" />
      </g>
    </g>
    <g
       id="g24">
      <path
         d="m 64.846914,44.340625 v -3.5"
         style="fill:#000000;fill-opacity:1;fill-rule:nonzero;stroke:#000000;stroke-width:0.8;stroke-linecap:butt;stroke-linejoin:round;stroke-miterlimit:10;stroke-dasharray:none;stroke-opacity:1"
         id="path26" />
      <g
         id="g28"
         transform="translate(61.026602,28.215625)">
        <text
           xml:space="preserve"
           transform="scale(1,-1)"
           style="font-variant:normal;font-weight:normal;font-size:12px;font-family:'DejaVu Serif';-inkscape-font-specification:DejaVuSerif;writing-mode:lr-tb;fill:#000000;fill-opacity:1;fill-rule:nonzero;stroke:none"
           id="text32"><tspan
             x="0"
             y="0"
             id="tspan30">0</tspan></text>
      </g>
    </g>
    <g
       id="g34">
      <g
         id="g36"
         clip-path="url(#clipPath40)">
        <path
           d="M 130.85977,44.340625 V 284.38062"
           style="fill:none;stroke:#b0b0b0;stroke-width:0.5;stroke-linecap:butt;stroke-linejoin:round;stroke-miterlimit:10;stroke-dasharray:1.85, 0.8;stroke-dashoffset:0;stroke-opacity:0.6"
           id="path42" />
      </g>
    </g>
    <g
       id="g44">
      <path
         d="m 130.85977,44.340625 v -3.5"
         style="fill:#000000;fill-opacity:1;fill-rule:nonzero;stroke:#000000;stroke-width:0.8;stroke-linecap:butt;stroke-linejoin:round;stroke-miterlimit:10;stroke-dasharray:none;stroke-opacity:1"
         id="path46" />
      <g
         id="g48"
         transform="translate(123.21914,28.215625)">
        <text
           xml:space="preserve"
           transform="scale(1,-1)"
           style="font-variant:normal;font-weight:normal;font-size:12px;font-family:'DejaVu Serif';-inkscape-font-specification:DejaVuSerif;writing-mode:lr-tb;fill:#000000;fill-opacity:1;fill-rule:nonzero;stroke:none"
           id="text52"><tspan
             x="0 7.632"
             y="0"
             id="tspan50">20</tspan></text>
      </g>
    </g>
    <g
       id="g54">
      <g
         id="g56"
         clip-path="url(#clipPath60)">
        <path
           d="M 196.87263,44.340625 V 284.38062"
           style="fill:none;stroke:#b0b0b0;stroke-width:0.5;stroke-linecap:butt;stroke-linejoin:round;stroke-miterlimit:10;stroke-dasharray:1.85, 0.8;stroke-dashoffset:0;stroke-opacity:0.6"
           id="path62" />
      </g>
    </g>
    <g
       id="g64">
      <path
         d="m 196.87263,44.340625 v -3.5"
         style="fill:#000000;fill-opacity:1;fill-rule:nonzero;stroke:#000000;stroke-width:0.8;stroke-linecap:butt;stroke-linejoin:round;stroke-miterlimit:10;stroke-dasharray:none;stroke-opacity:1"
         id="path66" />
      <g
         id="g68"
         transform="translate(189.232,28.215625)">
        <text
           xml:space="preserve"
           transform="scale(1,-1)"
           style="font-variant:normal;font-weight:normal;font-size:12px;font-family:'DejaVu Serif';-inkscape-font-specification:DejaVuSerif;writing-mode:lr-tb;fill:#000000;fill-opacity:1;fill-rule:nonzero;stroke:none"
           id="text72"><tspan
             x="0 7.632"
             y="0"
             id="tspan70">40</tspan></text>
      </g>
    </g>
    <g
       id="g74">
      <g
         id="g76"
         clip-path="url(#clipPath80)">
        <path
           d="M 262.88548,44.340625 V 284.38062"
           style="fill:none;stroke:#b0b0b0;stroke-width:0.5;stroke-linecap:butt;stroke-linejoin:round;stroke-miterlimit:10;stroke-dasharray:1.85, 0.8;stroke-dashoffset:0;stroke-opacity:0.6"
           id="path82" />
      </g>
    </g>
    <g
       id="g84">
      <path
         d="m 262.88548,44.340625 v -3.5"
         style="fill:#000000;fill-opacity:1;fill-rule:nonzero;stroke:#000000;stroke-width:0.8;stroke-linecap:butt;stroke-linejoin:round;stroke-miterlimit:10;stroke-dasharray:none;stroke-opacity:1"
         id="path86" />
      <g
         id="g88"
         transform="translate(255.24486,28.215625)">
        <text
           xml:space="preserve"
           transform="scale(1,-1)"
           style="font-variant:normal;font-weight:normal;font-size:12px;font-family:'DejaVu Serif';-inkscape-font-specification:DejaVuSerif;writing-mode:lr-tb;fill:#000000;fill-opacity:1;fill-rule:nonzero;stroke:none"
           id="text92"><tspan
             x="0 7.632"
             y="0"
             id="tspan90">60</tspan></text>
      </g>
    </g>
    <g
       id="g94">
      <g
         id="g96"
         clip-path="url(#clipPath100)">
        <path
           d="M 328.89834,44.340625 V 284.38062"
           style="fill:none;stroke:#b0b0b0;stroke-width:0.5;stroke-linecap:butt;stroke-linejoin:round;stroke-miterlimit:10;stroke-dasharray:1.85, 0.8;stroke-dashoffset:0;stroke-opacity:0.6"
           id="path102" />
      </g>
    </g>
    <g
       id="g104">
      <path
         d="m 328.89834,44.340625 v -3.5"
         style="fill:#000000;fill-opacity:1;fill-rule:nonzero;stroke:#000000;stroke-width:0.8;stroke-linecap:butt;stroke-linejoin:round;stroke-miterlimit:10;stroke-dasharray:none;stroke-opacity:1"
         id="path106" />
      <g
         id="g108"
         transform="translate(321.25771,28.215625)">
        <text
           xml:space="preserve"
           transform="scale(1,-1)"
           style="font-variant:normal;font-weight:normal;font-size:12px;font-family:'DejaVu Serif';-inkscape-font-specification:DejaVuSerif;writing-mode:lr-tb;fill:#000000;fill-opacity:1;fill-rule:nonzero;stroke:none"
           id="text112"><tspan
             x="0 7.632"
             y="0"
             id="tspan110">80</tspan></text>
      </g>
    </g>
    <g
       id="g114">
      <g
         id="g116"
         clip-path="url(#clipPath120)">
        <path
           d="M 394.91119,44.340625 V 284.38062"
           style="fill:none;stroke:#b0b0b0;stroke-width:0.5;stroke-linecap:butt;stroke-linejoin:round;stroke-miterlimit:10;stroke-dasharray:1.85, 0.8;stroke-dashoffset:0;stroke-opacity:0.6"
           id="path122" />
      </g>
    </g>
    <g
       id="g124">
      <path
         d="m 394.91119,44.340625 v -3.5"
         style="fill:#000000;fill-opacity:1;fill-rule:nonzero;stroke:#000000;stroke-width:0.8;stroke-linecap:butt;stroke-linejoin:round;stroke-miterlimit:10;stroke-dasharray:none;stroke-opacity:1"
         id="path126" />
      <g
         id="g128"
         transform="translate(383.45026,28.215625)">
        <text
           xml:space="preserve"
           transform="scale(1,-1)"
           style="font-variant:normal;font-weight:normal;font-size:12px;font-family:'DejaVu Serif';-inkscape-font-specification:DejaVuSerif;writing-mode:lr-tb;fill:#000000;fill-opacity:1;fill-rule:nonzero;stroke:none"
           id="text132"><tspan
             x="0 7.632 15.264"
             y="0"
             id="tspan130">100</tspan></text>
      </g>
      <g
         id="g134"
         transform="translate(205.545,10.325)">
        <text
           xml:space="preserve"
           transform="scale(1,-1)"
           style="font-variant:normal;font-weight:bold;font-size:15px;font-family:'DejaVu Serif';-inkscape-font-specification:DejaVuSerif-Bold;writing-mode:lr-tb;fill:#000000;fill-opacity:1;fill-rule:nonzero;stroke:none"
           id="text138"><tspan
             x="0 11.43 21.915001 31.92 41.055"
             y="0"
             id="tspan136">Epoch</tspan></text>
      </g>
    </g>
    <g
       id="g140">
      <g
         id="g142"
         clip-path="url(#clipPath146)">
        <path
           d="M 51.809375,44.340625 H 411.24937"
           style="fill:none;stroke:#b0b0b0;stroke-width:0.5;stroke-linecap:butt;stroke-linejoin:round;stroke-miterlimit:10;stroke-dasharray:1.85, 0.8;stroke-dashoffset:0;stroke-opacity:0.6"
           id="path148" />
      </g>
    </g>
    <g
       id="g150">
      <path
         d="m 51.809375,44.340625 h -3.5"
         style="fill:#000000;fill-opacity:1;fill-rule:nonzero;stroke:#000000;stroke-width:0.8;stroke-linecap:butt;stroke-linejoin:round;stroke-miterlimit:10;stroke-dasharray:none;stroke-opacity:1"
         id="path152" />
      <g
         id="g154"
         transform="translate(25.715625,39.778125)">
        <text
           xml:space="preserve"
           transform="scale(1,-1)"
           style="font-variant:normal;font-weight:normal;font-size:12px;font-family:'DejaVu Serif';-inkscape-font-specification:DejaVuSerif;writing-mode:lr-tb;fill:#000000;fill-opacity:1;fill-rule:nonzero;stroke:none"
           id="text158"><tspan
             x="0 7.632 11.448"
             y="0"
             id="tspan156">0.5</tspan></text>
      </g>
    </g>
    <g
       id="g160">
      <g
         id="g162"
         clip-path="url(#clipPath166)">
        <path
           d="M 51.809375,92.348625 H 411.24937"
           style="fill:none;stroke:#b0b0b0;stroke-width:0.5;stroke-linecap:butt;stroke-linejoin:round;stroke-miterlimit:10;stroke-dasharray:1.85, 0.8;stroke-dashoffset:0;stroke-opacity:0.6"
           id="path168" />
      </g>
    </g>
    <g
       id="g170">
      <path
         d="m 51.809375,92.348625 h -3.5"
         style="fill:#000000;fill-opacity:1;fill-rule:nonzero;stroke:#000000;stroke-width:0.8;stroke-linecap:butt;stroke-linejoin:round;stroke-miterlimit:10;stroke-dasharray:none;stroke-opacity:1"
         id="path172" />
      <g
         id="g174"
         transform="translate(25.715625,87.786125)">
        <text
           xml:space="preserve"
           transform="scale(1,-1)"
           style="font-variant:normal;font-weight:normal;font-size:12px;font-family:'DejaVu Serif';-inkscape-font-specification:DejaVuSerif;writing-mode:lr-tb;fill:#000000;fill-opacity:1;fill-rule:nonzero;stroke:none"
           id="text178"><tspan
             x="0 7.632 11.448"
             y="0"
             id="tspan176">0.6</tspan></text>
      </g>
    </g>
    <g
       id="g180">
      <g
         id="g182"
         clip-path="url(#clipPath186)">
        <path
           d="M 51.809375,140.35662 H 411.24937"
           style="fill:none;stroke:#b0b0b0;stroke-width:0.5;stroke-linecap:butt;stroke-linejoin:round;stroke-miterlimit:10;stroke-dasharray:1.85, 0.8;stroke-dashoffset:0;stroke-opacity:0.6"
           id="path188" />
      </g>
    </g>
    <g
       id="g190">
      <path
         d="m 51.809375,140.35662 h -3.5"
         style="fill:#000000;fill-opacity:1;fill-rule:nonzero;stroke:#000000;stroke-width:0.8;stroke-linecap:butt;stroke-linejoin:round;stroke-miterlimit:10;stroke-dasharray:none;stroke-opacity:1"
         id="path192" />
      <g
         id="g194"
         transform="translate(25.715625,135.79412)">
        <text
           xml:space="preserve"
           transform="scale(1,-1)"
           style="font-variant:normal;font-weight:normal;font-size:12px;font-family:'DejaVu Serif';-inkscape-font-specification:DejaVuSerif;writing-mode:lr-tb;fill:#000000;fill-opacity:1;fill-rule:nonzero;stroke:none"
           id="text198"><tspan
             x="0 7.632 11.448"
             y="0"
             id="tspan196">0.7</tspan></text>
      </g>
    </g>
    <g
       id="g200">
      <g
         id="g202"
         clip-path="url(#clipPath206)">
        <path
           d="M 51.809375,188.36462 H 411.24937"
           style="fill:none;stroke:#b0b0b0;stroke-width:0.5;stroke-linecap:butt;stroke-linejoin:round;stroke-miterlimit:10;stroke-dasharray:1.85, 0.8;stroke-dashoffset:0;stroke-opacity:0.6"
           id="path208" />
      </g>
    </g>
    <g
       id="g210">
      <path
         d="m 51.809375,188.36462 h -3.5"
         style="fill:#000000;fill-opacity:1;fill-rule:nonzero;stroke:#000000;stroke-width:0.8;stroke-linecap:butt;stroke-linejoin:round;stroke-miterlimit:10;stroke-dasharray:none;stroke-opacity:1"
         id="path212" />
      <g
         id="g214"
         transform="translate(25.715625,183.80213)">
        <text
           xml:space="preserve"
           transform="scale(1,-1)"
           style="font-variant:normal;font-weight:normal;font-size:12px;font-family:'DejaVu Serif';-inkscape-font-specification:DejaVuSerif;writing-mode:lr-tb;fill:#000000;fill-opacity:1;fill-rule:nonzero;stroke:none"
           id="text218"><tspan
             x="0 7.632 11.448"
             y="0"
             id="tspan216">0.8</tspan></text>
      </g>
    </g>
    <g
       id="g220">
      <g
         id="g222"
         clip-path="url(#clipPath226)">
        <path
           d="M 51.809375,236.37262 H 411.24937"
           style="fill:none;stroke:#b0b0b0;stroke-width:0.5;stroke-linecap:butt;stroke-linejoin:round;stroke-miterlimit:10;stroke-dasharray:1.85, 0.8;stroke-dashoffset:0;stroke-opacity:0.6"
           id="path228" />
      </g>
    </g>
    <g
       id="g230">
      <path
         d="m 51.809375,236.37262 h -3.5"
         style="fill:#000000;fill-opacity:1;fill-rule:nonzero;stroke:#000000;stroke-width:0.8;stroke-linecap:butt;stroke-linejoin:round;stroke-miterlimit:10;stroke-dasharray:none;stroke-opacity:1"
         id="path232" />
      <g
         id="g234"
         transform="translate(25.715625,231.81012)">
        <text
           xml:space="preserve"
           transform="scale(1,-1)"
           style="font-variant:normal;font-weight:normal;font-size:12px;font-family:'DejaVu Serif';-inkscape-font-specification:DejaVuSerif;writing-mode:lr-tb;fill:#000000;fill-opacity:1;fill-rule:nonzero;stroke:none"
           id="text238"><tspan
             x="0 7.632 11.448"
             y="0"
             id="tspan236">0.9</tspan></text>
      </g>
    </g>
    <g
       id="g240">
      <g
         id="g242"
         clip-path="url(#clipPath246)">
        <path
           d="M 51.809375,284.38062 H 411.24937"
           style="fill:none;stroke:#b0b0b0;stroke-width:0.5;stroke-linecap:butt;stroke-linejoin:round;stroke-miterlimit:10;stroke-dasharray:1.85, 0.8;stroke-dashoffset:0;stroke-opacity:0.6"
           id="path248" />
      </g>
    </g>
    <g
       id="g250">
      <path
         d="m 51.809375,284.38062 h -3.5"
         style="fill:#000000;fill-opacity:1;fill-rule:nonzero;stroke:#000000;stroke-width:0.8;stroke-linecap:butt;stroke-linejoin:round;stroke-miterlimit:10;stroke-dasharray:none;stroke-opacity:1"
         id="path252" />
      <g
         id="g254"
         transform="translate(25.715625,279.81812)">
        <text
           xml:space="preserve"
           transform="scale(1,-1)"
           style="font-variant:normal;font-weight:normal;font-size:12px;font-family:'DejaVu Serif';-inkscape-font-specification:DejaVuSerif;writing-mode:lr-tb;fill:#000000;fill-opacity:1;fill-rule:nonzero;stroke:none"
           id="text258"><tspan
             x="0 7.632 11.448"
             y="0"
             id="tspan256">1.0</tspan></text>
      </g>
      <g
         id="g260"
         transform="rotate(90,-53.908437,72.295938)">
        <text
           xml:space="preserve"
           transform="scale(1,-1)"
           style="font-variant:normal;font-weight:bold;font-size:15px;font-family:'DejaVu Serif';-inkscape-font-specification:DejaVuSerif-Bold;writing-mode:lr-tb;fill:#000000;fill-opacity:1;fill-rule:nonzero;stroke:none"
           id="text264"><tspan
             x="0 11.64 20.775 29.91 40.814999 48.720001 58.439999 67.574997"
             y="0"
             id="tspan262">Accuracy</tspan></text>
      </g>
    </g>
    <g
       id="g266">
      <g
         id="g268"
         clip-path="url(#clipPath272)">
        <path
           d="m 68.147557,98.915594 3.300643,24.976826 3.300642,23.86045 3.300643,15.47624 3.300643,19.86431 3.300643,14.55283 3.300643,11.72225 3.300642,10.1594 3.300643,8.38294 3.300643,7.32332 3.300638,7.79879 3.30065,5.40387 3.30064,3.72059 3.30064,4.95899 3.30065,2.63562 3.30064,5.51212 3.30064,0.34424 3.30064,4.65541 3.30065,0.078 3.30064,3.74142 3.30064,-0.42507 3.30064,3.71287 3.30065,0.9814 3.30064,1.70484 3.30064,-2.39482 3.30065,4.36434 3.30064,-1.03709 3.30064,-0.57886 3.30064,1.07606 3.30065,-1.23716 3.30064,1.76769 3.30064,0.7659 3.30065,-0.33058 3.30064,1.44324 3.30064,-0.63505 3.30064,-0.61613 3.30065,-1.24156 3.30064,1.30201 3.30064,0.31503 3.30065,1.36035 3.30064,-0.6793 3.30064,-0.84486 3.30064,0.64465 3.30065,0.87951 3.30064,-0.98533 3.30064,0.98533 h 3.30064 l 3.30065,-0.61776 3.30064,0.61776 h 3.30064 l 3.30065,-0.79572 3.30064,0.79572 3.30064,-0.80993 3.30064,0.21364 3.30065,-0.15789 3.30064,0.75418 h 3.30064 3.30065 3.30064 3.30064 3.30064 3.30065 3.30064 l 3.30064,-1.95508 3.30064,1.95508 3.30065,-1.31515 3.30064,0.67967 3.30064,0.26694 3.30065,-0.13518 3.30064,0.50372 h 3.30064 3.30064 3.30065 3.30064 3.30064 l 3.30065,-0.57682 3.30064,0.57682 h 3.30064 3.30064 l 3.30065,-0.52048 3.30064,0.51604 3.30064,0.004 3.30065,-0.95356 3.30064,0.95356 3.30064,-0.29935 3.30064,0.26714 3.30065,-0.19658 3.30064,-1.78859 3.30064,2.01738 3.30064,-1.59963 3.30065,1.59963 h 3.30064 3.30064 3.30065 3.30064 3.30064 3.30065 3.30064 l 3.30064,-1.06966 3.30064,1.06269"
           style="fill:none;stroke:#0072b2;stroke-width:2.5;stroke-linecap:square;stroke-linejoin:round;stroke-miterlimit:10;stroke-dasharray:none;stroke-opacity:1"
           id="path274" />
      </g>
    </g>
    <g
       id="g276">
      <g
         id="g278"
         clip-path="url(#clipPath282)">
        <path
           d="m 68.147557,74.629404 3.300643,20.761814 3.300642,10.642762 3.300643,1.6925 3.300643,15.04502 3.300643,-3.9984 3.300643,14.55941 3.300642,6.50618 3.300643,11.20422 3.300643,-1.97122 3.300638,8.48493 3.30065,-1.2489 3.30064,4.49774 3.30064,12.95491 3.30065,-4.62729 3.30064,7.0049 3.30064,-1.84956 3.30064,-5.81859 3.30065,7.75969 3.30064,-1.61498 3.30064,18.21719 3.30064,-11.70555 3.30065,9.29257 3.30064,-3.55438 3.30064,-0.96912 3.30065,1.30677 3.30064,-5.56421 3.30064,14.99385 3.30064,-6.49684 3.30065,2.41131 3.30064,4.10495 3.30064,0.58478 3.30065,-1.19267 3.30064,-0.85566 3.30064,-2.23397 3.30064,-6.95727 3.30065,13.76488 3.30064,-6.34275 3.30064,-2.70136 3.30065,4.08097 3.30064,4.68596 3.30064,-1.83077 3.30064,-7.52372 3.30065,7.16378 3.30064,-2.84706 3.30064,-0.29246 3.30064,5.60099 3.30065,-10.10028 3.30064,4.36926 3.30064,3.06253 3.30065,-0.77843 3.30064,-5.83027 3.30064,10.07153 3.30064,2.60431 3.30065,-5.65709 3.30064,-2.29639 3.30064,-2.74964 3.30065,5.8557 3.30064,-7.81246 3.30064,11.84988 3.30064,-6.1477 3.30065,2.07245 3.30064,2.84724 3.30064,-5.216 3.30064,6.29928 3.30065,-5.45053 3.30064,1.44915 3.30064,4.22269 3.30065,-1.53553 3.30064,4.01111 3.30064,-13.56823 3.30064,4.32198 3.30065,9.1077 3.30064,-12.35739 3.30064,0.60858 3.30065,11.49553 3.30064,-9.37483 3.30064,8.83459 3.30064,-5.35776 3.30065,-4.75155 3.30064,-1.21992 3.30064,6.80195 3.30065,1.32589 3.30064,0.80974 3.30064,2.13748 3.30064,-10.38229 3.30065,1.83845 3.30064,2.67683 3.30064,-7.60905 3.30064,10.00375 3.30065,-3.95871 3.30064,-2.76401 3.30064,1.81625 3.30065,2.64554 3.30064,-0.0784 3.30064,-1.36203 3.30065,-4.698 3.30064,0.92464 3.30064,16.22585 3.30064,-12.32522"
           style="fill:none;stroke:#d55e00;stroke-width:2.5;stroke-linecap:square;stroke-linejoin:round;stroke-miterlimit:10;stroke-dasharray:none;stroke-opacity:1"
           id="path284" />
      </g>
    </g>
    <g
       id="g286">
      <path
         d="M 51.809375,44.340625 V 284.38062"
         style="fill:none;stroke:#000000;stroke-width:0.8;stroke-linecap:square;stroke-linejoin:miter;stroke-miterlimit:10;stroke-dasharray:none;stroke-opacity:1"
         id="path288" />
      <path
         d="M 411.24937,44.340625 V 284.38062"
         style="fill:none;stroke:#000000;stroke-width:0.8;stroke-linecap:square;stroke-linejoin:miter;stroke-miterlimit:10;stroke-dasharray:none;stroke-opacity:1"
         id="path290" />
      <path
         d="M 51.809375,44.340625 H 411.24937"
         style="fill:none;stroke:#000000;stroke-width:0.8;stroke-linecap:square;stroke-linejoin:miter;stroke-miterlimit:10;stroke-dasharray:none;stroke-opacity:1"
         id="path292" />
      <path
         d="M 51.809375,284.38062 H 411.24937"
         style="fill:none;stroke:#000000;stroke-width:0.8;stroke-linecap:square;stroke-linejoin:miter;stroke-miterlimit:10;stroke-dasharray:none;stroke-opacity:1"
         id="path294" />
      <g
         id="g296"
         transform="translate(187.25594,290.38062)">
        <text
           xml:space="preserve"
           transform="scale(1,-1)"
           style="font-variant:normal;font-weight:bold;font-size:16px;font-family:'DejaVu Serif';-inkscape-font-specification:DejaVuSerif-Bold;writing-mode:lr-tb;fill:#000000;fill-opacity:1;fill-rule:nonzero;stroke:none"
           id="text300"><tspan
             x="0 13.655375 24.023375 37.799374 43.367374 56.103374 67.463371 79.495377"
             y="0"
             id="tspan298">Raw CFPs</tspan></text>
      </g>
      <path
         d="m 229.6275,50.840625 h 172.52188 c 1.73333,0 2.59999,0.866667 2.59999,2.6 v 37.23125 c 0,1.733333 -0.86666,2.6 -2.59999,2.6 H 229.6275 c -1.73333,0 -2.6,-0.866667 -2.6,-2.6 v -37.23125 c 0,-1.733333 0.86667,-2.6 2.6,-2.6 z"
         style="fill:#ffffff;fill-opacity:0.9;fill-rule:nonzero;stroke:#808080;stroke-width:1;stroke-linecap:butt;stroke-linejoin:miter;stroke-miterlimit:10;stroke-dasharray:none;stroke-opacity:0.9"
         id="path302" />
      <path
         d="m 232.2275,82.746875 h 13 13"
         style="fill:none;stroke:#0072b2;stroke-width:2.5;stroke-linecap:square;stroke-linejoin:round;stroke-miterlimit:10;stroke-dasharray:none;stroke-opacity:1"
         id="path304" />
      <g
         id="g306"
         transform="translate(268.6275,78.196875)">
        <text
           xml:space="preserve"
           transform="scale(1,-1)"
           style="font-variant:normal;font-weight:normal;font-size:13px;font-family:'DejaVu Serif';-inkscape-font-specification:DejaVuSerif;writing-mode:lr-tb;fill:#000000;fill-opacity:1;fill-rule:nonzero;stroke:none"
           id="text310"><tspan
             x="0 8.6709995 14.885 22.632999 26.792999 35.165001 39.299 48.685001 55.965 63.244999 71.616997 77.831001 85.579002 92.859001"
             y="0"
             id="tspan308">Train Accuracy</tspan></text>
      </g>
      <path
         d="m 232.2275,63.48125 h 13 13"
         style="fill:none;stroke:#d55e00;stroke-width:2.5;stroke-linecap:square;stroke-linejoin:round;stroke-miterlimit:10;stroke-dasharray:none;stroke-opacity:1"
         id="path312" />
      <g
         id="g314"
         transform="translate(268.6275,58.93125)">
        <text
           xml:space="preserve"
           transform="scale(1,-1)"
           style="font-variant:normal;font-weight:normal;font-size:13px;font-family:'DejaVu Serif';-inkscape-font-specification:DejaVuSerif;writing-mode:lr-tb;fill:#000000;fill-opacity:1;fill-rule:nonzero;stroke:none"
           id="text318"><tspan
             x="0 8.1984997 15.9465 20.106501 24.2665 32.586498 40.334499 45.560501 49.720501 57.546501 65.918503 70.052498 79.438499 86.718498 93.998497 102.3705 108.5845 116.3325 123.6125"
             y="0"
             id="tspan316">Validation Accuracy</tspan></text>
      </g>
    </g>
  </g>
</svg>
